# xmcd
#
# Track frame offsets:
# 150
# 11970
# 26631
# 36757
# 52637
# 67343
# 83052
# 94159
# 109649
# 124692
# 139982
# 164790
# 182223
# 193589
#
# Disc length: 2795 seconds
#
#
# Revision: 1
# Processed by: cddbd v1.5.1PL2 Copyright (c) Steve Scherf et al.
# Submitted via: FreeRIP 2.945 
#
DISCID=c50ae90e
DTITLE=Breno Reis e Marco Viola - Pode Voltar Paixão
DYEAR=2000
DGENRE=Sertanejo
TTITLE0=Piracicabano
TTITLE1=O amor te dessas coisas
TTITLE2=No batido do pagode
TTITLE3=Um amor e uma paixão
TTITLE4=Inquilino de violeiro
TTITLE5=Chamada a cobrar
TTITLE6=Chão de Goiás
TTITLE7=Cobra venenosa
TTITLE8=Águas do São Francisco
TTITLE9=Faca que não corta
TTITLE10=Pode voltar paixão
TTITLE11=Zé do boi
TTITLE12=Queima do alho
TTITLE13=Caçador
EXTD=
EXTT0=
EXTT1=
EXTT2=
EXTT3=
EXTT4=
EXTT5=
EXTT6=
EXTT7=
EXTT8=
EXTT9=
EXTT10=
EXTT11=
EXTT12=
EXTT13=
PLAYORDER=
